<svg id="visual" viewBox="0 0 960 540" width="960" height="540" xmlns="http://www.w3.org/2000/svg" xmlns:xlink="http://www.w3.org/1999/xlink" version="1.1"><path d="M0 378L17.8 380.3C35.7 382.7 71.3 387.3 106.8 392.5C142.3 397.7 177.7 403.3 213.2 400.5C248.7 397.7 284.3 386.3 320 378.2C355.7 370 391.3 365 426.8 375.5C462.3 386 497.7 412 533.2 411.3C568.7 410.7 604.3 383.3 640 366.5C675.7 349.7 711.3 343.3 746.8 353.5C782.3 363.7 817.7 390.3 853.2 391C888.7 391.7 924.3 366.3 942.2 353.7L960 341" fill="none" stroke-linecap="round" stroke-linejoin="miter" stroke="#1f2039" stroke-width="3"></path></svg>