<svg id="visual" viewBox="0 0 1300 540" width="1300" height="540" xmlns="http://www.w3.org/2000/svg" xmlns:xlink="http://www.w3.org/1999/xlink" version="1.1"><path d="M0 378L24 380.3C48 382.7 96 387.3 144.2 392.5C192.3 397.7 240.7 403.3 288.8 400.5C337 397.7 385 386.3 433.2 378.2C481.3 370 529.7 365 577.8 375.5C626 386 674 412 722.2 411.3C770.3 410.7 818.7 383.3 866.8 366.5C915 349.7 963 343.3 1011.2 353.5C1059.3 363.7 1107.7 390.3 1155.8 391C1204 391.7 1252 366.3 1276 353.7L1300 341" fill="none" stroke-linecap="round" stroke-linejoin="miter" stroke="#1f2039" stroke-width="3"></path></svg>