<svg id="visual" viewBox="0 0 2000 540" width="2000" height="540" xmlns="http://www.w3.org/2000/svg" xmlns:xlink="http://www.w3.org/1999/xlink" version="1.1"><path d="M0 378L37 380.3C74 382.7 148 387.3 222 392.5C296 397.7 370 403.3 444.2 400.5C518.3 397.7 592.7 386.3 666.8 378.2C741 370 815 365 889 375.5C963 386 1037 412 1111 411.3C1185 410.7 1259 383.3 1333.2 366.5C1407.3 349.7 1481.7 343.3 1555.8 353.5C1630 363.7 1704 390.3 1778 391C1852 391.7 1926 366.3 1963 353.7L2000 341" fill="none" stroke-linecap="round" stroke-linejoin="miter" stroke="#1f2039" stroke-width="3"></path></svg>